<svg fill="#000000" width="800px" height="800px" viewBox="0 0 24 24" id="fish" data-name="Line Color" xmlns="http://www.w3.org/2000/svg" class="icon line-color">
  <g transform="translate(-1.5, 0) scale(1.13)">
    
    <path id="primary" 
          transform="translate(0, 3) scale(1)" 
          d="M14.5,7A9.93,9.93,0,0,0,8.1,9.74,4.83,4.83,0,0,0,6.77,8.55,3.65,3.65,0,0,0,3,8.51,4.14,4.14,0,0,0,5.08,12,4.14,4.14,0,0,0,3,15.49a3.65,3.65,0,0,0,3.77,0A4.83,4.83,0,0,0,8.1,14.26,9.93,9.93,0,0,0,14.5,17c5,0,6.5-5,6.5-5S19.5,7,14.5,7Z" 
          style="fill: none; stroke: rgb(0, 0, 0); stroke-linecap: round; stroke-linejoin: round; stroke-width: 2;">
    </path>

    <path fill="#000000" 
          transform="translate(7, 0) scale(0.7)" 
          d="M8,0 C11.3137,0 14,2.68629 14,6 C14,7.33918 13.5613,8.57588 12.8197,9.57422 L7.99994,16 L3.1803,9.57422 C2.43873,8.57588 2,7.33918 2,6 C2,2.68629 4.68629,0 8,0 Z M8,2 C5.79086,2 4,3.79086 4,6 C4,6.89363 4.29068,7.71358 4.78334,8.37826 L7.99996,12.6668 L11.2167,8.37817 C11.7093,7.71351 12,6.89359 12,6 C12,3.79086 10.2091,2 8,2 Z M8,4 C9.10457,4 10,4.89543 10,6 C10,7.10457 9.10457,8 8,8 C6.89543,8 6,7.10457 6,6 C6,4.89543 6.89543,4 8,4 Z">
    </path>
    
  </g>
</svg>